<?xml version="1.0" encoding="utf-8"?>
<svg viewBox="0 0 500 500" xmlns="http://www.w3.org/2000/svg">
  <path d="M 302.325 121.9 L 354.125 121.9 L 354.125 278.7 C 354.125 313.233 345.142 338.9 327.175 355.7 C 309.208 372.5 282.958 380.9 248.425 380.9 C 230.225 380.9 212.958 378.683 196.625 374.25 C 180.292 369.817 166.758 363.4 156.025 355 L 177.725 315.8 C 185.658 322.333 195.692 327.527 207.825 331.38 C 219.958 335.227 232.092 337.15 244.225 337.15 C 263.125 337.15 277.068 332.893 286.055 324.38 C 295.035 315.86 299.525 302.967 299.525 285.7 L 299.525 277.65 C 285.292 293.283 265.458 301.1 240.025 301.1 C 222.758 301.1 206.952 297.307 192.605 289.72 C 178.252 282.14 166.875 271.467 158.475 257.7 C 150.075 243.933 145.875 228.067 145.875 210.1 C 145.875 192.133 150.075 176.267 158.475 162.5 C 166.875 148.733 178.252 138.057 192.605 130.47 C 206.952 122.89 222.758 119.1 240.025 119.1 C 267.325 119.1 288.092 128.083 302.325 146.05 L 302.325 121.9 Z M 250.875 256.3 C 265.342 256.3 277.185 252.04 286.405 243.52 C 295.618 235.007 300.225 223.867 300.225 210.1 C 300.225 196.333 295.618 185.19 286.405 176.67 C 277.185 168.157 265.342 163.9 250.875 163.9 C 236.408 163.9 224.508 168.157 215.175 176.67 C 205.842 185.19 201.175 196.333 201.175 210.1 C 201.175 223.867 205.842 235.007 215.175 243.52 C 224.508 252.04 236.408 256.3 250.875 256.3 Z" style="fill: rgb(83, 186, 130); white-space: pre;"/>
</svg>