<?xml version="1.0" encoding="utf-8"?>
<svg viewBox="0 0 1024 500" width="1024px" height="500px" xmlns="http://www.w3.org/2000/svg">
  <path d="M 564.325 121.9 L 616.125 121.9 L 616.125 278.7 C 616.125 313.233 607.142 338.9 589.175 355.7 C 571.208 372.5 544.958 380.9 510.425 380.9 C 492.225 380.9 474.958 378.683 458.625 374.25 C 442.292 369.817 428.758 363.4 418.025 355 L 439.725 315.8 C 447.658 322.333 457.692 327.527 469.825 331.38 C 481.958 335.227 494.092 337.15 506.225 337.15 C 525.125 337.15 539.068 332.893 548.055 324.38 C 557.035 315.86 561.525 302.967 561.525 285.7 L 561.525 277.65 C 547.292 293.283 527.458 301.1 502.025 301.1 C 484.758 301.1 468.952 297.307 454.605 289.72 C 440.252 282.14 428.875 271.467 420.475 257.7 C 412.075 243.933 407.875 228.067 407.875 210.1 C 407.875 192.133 412.075 176.267 420.475 162.5 C 428.875 148.733 440.252 138.057 454.605 130.47 C 468.952 122.89 484.758 119.1 502.025 119.1 C 529.325 119.1 550.092 128.083 564.325 146.05 L 564.325 121.9 Z M 512.875 256.3 C 527.342 256.3 539.185 252.04 548.405 243.52 C 557.618 235.007 562.225 223.867 562.225 210.1 C 562.225 196.333 557.618 185.19 548.405 176.67 C 539.185 168.157 527.342 163.9 512.875 163.9 C 498.408 163.9 486.508 168.157 477.175 176.67 C 467.842 185.19 463.175 196.333 463.175 210.1 C 463.175 223.867 467.842 235.007 477.175 243.52 C 486.508 252.04 498.408 256.3 512.875 256.3 Z" style="fill: rgb(83, 186, 130); white-space: pre;"/>
</svg>