<svg xmlns="http://www.w3.org/2000/svg" id="user" viewBox="0 0 32 32" width="96" height="96"><path d="M16 3.205C8.933 3.205 3.205 8.933 3.205 16S8.933 28.795 16 28.795 28.795 23.067 28.795 16 23.067 3.205 16 3.205zm0 1.066c6.467 0 11.73 5.262 11.73 11.73 0 2.845-1.02 5.457-2.712 7.49-1.17-.488-3.93-1.446-5.638-1.95-.146-.047-.17-.054-.17-.66 0-.502.207-1.006.408-1.433.218-.464.476-1.244.57-1.944.258-.3.61-.895.838-2.026.2-.997.106-1.36-.026-1.7-.014-.036-.028-.07-.04-.107-.05-.234.02-1.448.19-2.39.118-.648-.03-2.023-.92-3.16-.563-.72-1.64-1.6-3.604-1.724h-1.078c-1.932.123-3.008 1.005-3.57 1.724-.89 1.137-1.038 2.513-.92 3.16.172.942.24 2.156.19 2.386-.01.04-.024.075-.04.11-.13.342-.224.704-.024 1.7.226 1.132.58 1.726.84 2.027.09.7.35 1.48.568 1.944.16.34.234.8.234 1.454 0 .608-.023.615-.16.658-1.766.522-4.578 1.538-5.627 1.997-1.726-2.042-2.77-4.68-2.77-7.555C4.27 9.533 9.533 4.27 16 4.27zM7.81 24.387c1.202-.49 3.595-1.344 5.168-1.808.914-.288.914-1.058.914-1.677 0-.512-.035-1.268-.335-1.907-.206-.438-.442-1.19-.494-1.776-.01-.137-.076-.265-.18-.355-.15-.132-.458-.616-.654-1.593-.156-.774-.09-.943-.027-1.107.027-.07.053-.14.074-.216.128-.468-.015-2.005-.17-2.858-.068-.372.018-1.425.71-2.312.623-.795 1.564-1.238 2.765-1.315h1.01c1.234.077 2.175.52 2.798 1.315.694.887.778 1.94.71 2.312-.154.852-.298 2.39-.17 2.857.022.078.047.147.074.217.064.163.13.333-.025 1.106-.197.977-.505 1.46-.656 1.593-.103.09-.168.218-.18.355-.05.588-.286 1.338-.492 1.776-.236.502-.508 1.17-.508 1.886 0 .62 0 1.39.924 1.68 1.505.445 3.91 1.27 5.18 1.77-2.12 2.1-5.035 3.4-8.248 3.4-3.183 0-6.073-1.277-8.188-3.342z"/></svg>